<?xml version="1.0" encoding="UTF-8" standalone="no"?><!DOCTYPE svg PUBLIC "-//W3C//DTD SVG 1.1//EN" "http://www.w3.org/Graphics/SVG/1.1/DTD/svg11.dtd"><svg width="100%" height="100%" viewBox="0 0 284 284" version="1.1" xmlns="http://www.w3.org/2000/svg" xmlns:xlink="http://www.w3.org/1999/xlink" xml:space="preserve" xmlns:serif="http://www.serif.com/" style="fill-rule:evenodd;clip-rule:evenodd;stroke-linejoin:round;stroke-miterlimit:2;"><rect x="0" y="0" width="283.465" height="283.465" style="fill:none;"/><path d="M18.585,177.852c-2.834,-7.305 -4.833,-15.024 -5.882,-23.04l54.96,0c-0.56,-4.281 -0.849,-8.647 -0.849,-13.08c0,-4.433 0.289,-8.799 0.849,-13.08l-54.96,-0c1.049,-8.016 3.049,-15.735 5.882,-23.04l54.96,0c3.688,-9.508 8.789,-18.314 15.045,-26.16l-54.96,0c18.332,-22.992 46.578,-37.737 78.24,-37.737c55.201,0 100.017,44.816 100.017,100.017c0,55.201 -44.816,100.017 -100.017,100.017c-31.663,0 -59.909,-14.745 -78.24,-37.737l54.96,0c-6.255,-7.846 -11.357,-16.652 -15.045,-26.16l-54.96,0Z" style="fill:#ff00b1;"/><path d="M88.59,79.452c18.332,-22.992 46.578,-37.737 78.24,-37.737c31.663,0 59.909,14.745 78.24,37.737l-156.48,0Z" style="fill:#0100ae;"/><path d="M245.07,204.012c-18.332,22.992 -46.578,37.737 -78.24,37.737c-31.663,0 -59.909,-14.745 -78.24,-37.737l156.48,0Z" style="fill:#0100ae;"/><path d="M67.663,128.652c1.049,-8.016 3.049,-15.735 5.882,-23.04l186.57,0c2.834,7.305 4.833,15.024 5.882,23.04l-198.335,0Z" style="fill:#0100ae;"/><path d="M73.545,177.852c-2.834,-7.305 -4.833,-15.024 -5.882,-23.04l198.335,0c-1.049,8.016 -3.049,15.735 -5.882,23.04l-186.57,0Z" style="fill:#0100ae;"/></svg>